<svg xmlns="http://www.w3.org/2000/svg" width="48" height="48" viewBox="0 0 48 48">
  <g id="guest" transform="translate(-1604 -2189)">
    <g id="Group_1012" data-name="Group 1012" transform="translate(-361.934 -623)">
      <g id="_x34_3_search" transform="translate(1976.689 2816)">
        <path id="Path_1706" data-name="Path 1706" d="M0,6.225H2.165V0H0Z" transform="translate(33.065 33.537) rotate(135)" fill="#c1b0b5"/>
        <path id="Path_1707" data-name="Path 1707" d="M7.73,320.558a1.841,1.841,0,0,0,0-2.6L2.8,313.029a.686.686,0,0,0-.97,0L.2,314.662a.686.686,0,0,0,0,.97l4.926,4.926a1.841,1.841,0,0,0,2.6,0Z" transform="translate(28.976 -281.848)" fill="#f1d2a5"/>
        <ellipse id="Ellipse_27" data-name="Ellipse 27" cx="16.97" cy="16.97" rx="16.97" ry="16.97" transform="translate(0)" fill="#44c8dc"/>
        <circle id="Ellipse_28" data-name="Ellipse 28" cx="12.153" cy="12.153" r="12.153" transform="translate(4.817 4.817)" fill="#fff"/>
        <path id="Path_1709" data-name="Path 1709" d="M3.364,333.322,4.39,332.3a.686.686,0,0,0,0,.97l4.926,4.926a1.841,1.841,0,0,0,1.985.408,1.841,1.841,0,0,1-3.011.618l-4.926-4.926a.686.686,0,0,1,0-.97Z" transform="translate(25.813 -300.508)" fill="#ffa95f"/>
        <path id="Path_1710" data-name="Path 1710" d="M237.593,79.417a12.239,12.239,0,0,1,1.007-.9A12.153,12.153,0,0,0,255.681,95.6a12.153,12.153,0,1,1-18.088-16.18Z" transform="translate(-229.216 -71.04)" fill="#efefef"/>
        <rect id="Rectangle_843" data-name="Rectangle 843" width="9.599" height="2.149" rx="1.075" transform="translate(14.757 9.313)" fill="#e0d5d2"/>
        <rect id="Rectangle_844" data-name="Rectangle 844" width="11.892" height="2.149" rx="1.075" transform="translate(14.757 12.895)" fill="#e0d5d2"/>
        <rect id="Rectangle_845" data-name="Rectangle 845" width="11.892" height="2.149" rx="1.075" transform="translate(15.187 16.476)" fill="#e0d5d2"/>
      </g>
      <g id="Group_1011" data-name="Group 1011" transform="translate(1965.934 2829.44)">
        <g id="Group_998" data-name="Group 998" transform="translate(0 0)">
          <path id="Path_1702" data-name="Path 1702" d="M153.907,48.81c-9.013.127-15.333,6.909-16.9,8.771a.723.723,0,0,0,0,.938c1.568,1.863,7.888,8.645,16.9,8.771,9.013-.127,15.333-6.909,16.9-8.771a.723.723,0,0,0,0-.938C169.24,55.719,162.92,48.937,153.907,48.81Z" transform="translate(-136.834 -48.81)" fill="#efedef"/>
        </g>
        <g id="Group_999" data-name="Group 999" transform="translate(15.196 0.001)">
          <path id="Path_1703" data-name="Path 1703" d="M261.674,58.522c-1.567,1.861-7.888,8.644-16.9,8.77a17.988,17.988,0,0,1-1.877-.125c8.009-.938,13.567-6.916,15.024-8.645a.724.724,0,0,0,0-.938c-1.457-1.729-7.014-7.707-15.024-8.646a17.986,17.986,0,0,1,1.877-.125c9.013.126,15.333,6.909,16.9,8.77A.724.724,0,0,1,261.674,58.522Z" transform="translate(-242.897 -48.814)" fill="#e5e1e5"/>
        </g>
        <g id="Group_1000" data-name="Group 1000" transform="translate(7.833 0)">
          <circle id="Ellipse_25" data-name="Ellipse 25" cx="9.24" cy="9.24" r="9.24" transform="translate(0 0)" fill="#7a6d79"/>
        </g>
        <g id="Group_1002" data-name="Group 1002" transform="translate(13.204 5.433)">
          <circle id="Ellipse_26" data-name="Ellipse 26" cx="3.837" cy="3.837" r="3.837" transform="translate(0 0)" fill="#433f43"/>
        </g>
        <g id="Group_1003" data-name="Group 1003" transform="translate(13.441 5.688)">
          <path id="Path_1705" data-name="Path 1705" d="M265.086,65.09a3.837,3.837,0,0,1-7.438,1.328,3.792,3.792,0,0,0,1.371.254,3.837,3.837,0,0,0,3.6-5.164A3.836,3.836,0,0,1,265.086,65.09Z" transform="translate(-257.648 -61.507)" fill="#383638"/>
        </g>
        <g id="Group_1009" data-name="Group 1009" transform="translate(12.488 4.717)">
          <circle id="Ellipse_26-2" data-name="Ellipse 26" cx="1.903" cy="1.903" r="1.903" transform="translate(0 0)" fill="#eeecee"/>
        </g>
        <g id="Group_1010" data-name="Group 1010" transform="translate(19.365 10.161)">
          <circle id="Ellipse_26-3" data-name="Ellipse 26" cx="0.972" cy="0.972" r="0.972" transform="translate(0 0)" fill="#eeecee"/>
        </g>
      </g>
    </g>
    <g id="Rectangle_847" data-name="Rectangle 847" transform="translate(1604 2189)" fill="#fff" stroke="#707070" stroke-width="1" opacity="0">
      <rect width="48" height="48" stroke="none"/>
      <rect x="0.5" y="0.5" width="47" height="47" fill="none"/>
    </g>
  </g>
</svg>
