<svg xmlns="http://www.w3.org/2000/svg" width="86" height="79" viewBox="0 0 86 79">
  <g id="ic_pincode" transform="translate(-54.12)">
    <rect id="Rectangle_819" data-name="Rectangle 819" width="86" height="23" rx="4" transform="translate(54.12 56)" fill="#6f6571"/>
    <path id="Path_1631" data-name="Path 1631" d="M142.063,33.254a4,4,0,0,1-4-4V16.827a8.828,8.828,0,0,0-17.656,0V29.254a4,4,0,0,1-8,0V16.827a16.827,16.827,0,1,1,33.654,0V29.254A4,4,0,0,1,142.063,33.254Z" transform="translate(-32.035)" fill="#455a65"/>
    <g id="Group_953" data-name="Group 953" transform="translate(80.372 20.345)" opacity="0.1">
      <path id="Path_1632" data-name="Path 1632" d="M116.408,186.523a4,4,0,0,0,4-4v-8.909h-8v8.909A4,4,0,0,0,116.408,186.523Z" transform="translate(-112.408 -173.614)"/>
      <path id="Path_1633" data-name="Path 1633" d="M331.333,173.614v8.909a4,4,0,1,0,8,0v-8.909Z" transform="translate(-305.678 -173.614)"/>
    </g>
    <path id="Path_1634" data-name="Path 1634" d="M114.55,207.745h-34.7a3.729,3.729,0,0,0-3.729,3.729v28.2a3.73,3.73,0,0,0,3.729,3.73h34.7a3.73,3.73,0,0,0,3.729-3.73v-28.2A3.73,3.73,0,0,0,114.55,207.745Z" transform="translate(0 -183.4)" fill="#ffd782"/>
    <path id="Path_1635" data-name="Path 1635" d="M225.978,302.5a4.6,4.6,0,1,0-7.432,3.614v8.742h5.673v-8.742A4.586,4.586,0,0,0,225.978,302.5Z" transform="translate(-124.183 -262.995)" fill="#455a65"/>
    <g id="Group_967" data-name="Group 967" transform="translate(176 -38)">
      <g id="Group_954" data-name="Group 954" transform="translate(-115.711 100.471)">
        <path id="Path_1643" data-name="Path 1643" d="M51.614,309.391a1.239,1.239,0,0,1,.2.721,1.475,1.475,0,0,1-1.516,1.342,1.039,1.039,0,0,1-.944-.472L47.737,308.5l-1.64,2.51a.893.893,0,0,1-.87.447c-.6,0-1.566-.472-1.566-1.293a1.2,1.2,0,0,1,.3-.8l1.64-2.336-2.585-.746a1.152,1.152,0,0,1-.845-1.268,1.412,1.412,0,0,1,1.367-1.367.865.865,0,0,1,.373.075l2.61.845-.124-2.535a1.214,1.214,0,0,1,1.342-1.193,1.193,1.193,0,0,1,1.317,1.193l-.1,2.585,2.635-.895a1,1,0,0,1,.373-.075,1.477,1.477,0,0,1,1.293,1.541,1.04,1.04,0,0,1-.845,1.094l-2.535.6Z" transform="translate(-42.169 -300.841)" fill="#fff"/>
      </g>
      <g id="Group_955" data-name="Group 955" transform="translate(-103.272 100.471)">
        <path id="Path_1644" data-name="Path 1644" d="M161,309.391a1.239,1.239,0,0,1,.2.721,1.475,1.475,0,0,1-1.516,1.342,1.039,1.039,0,0,1-.944-.472l-1.616-2.486-1.64,2.51a.893.893,0,0,1-.87.447c-.6,0-1.566-.472-1.566-1.293a1.2,1.2,0,0,1,.3-.8l1.64-2.336-2.585-.746a1.152,1.152,0,0,1-.845-1.268,1.412,1.412,0,0,1,1.367-1.367.865.865,0,0,1,.373.075l2.61.845-.124-2.535a1.214,1.214,0,0,1,1.342-1.193,1.193,1.193,0,0,1,1.317,1.193l-.1,2.585,2.635-.895a1,1,0,0,1,.373-.075,1.477,1.477,0,0,1,1.293,1.541,1.04,1.04,0,0,1-.845,1.094l-2.535.6Z" transform="translate(-151.559 -300.841)" fill="#fff"/>
      </g>
      <g id="Group_956" data-name="Group 956" transform="translate(-90.834 100.471)">
        <path id="Path_1645" data-name="Path 1645" d="M270.394,309.391a1.239,1.239,0,0,1,.2.721,1.475,1.475,0,0,1-1.516,1.342,1.039,1.039,0,0,1-.944-.472l-1.616-2.486-1.64,2.51a.893.893,0,0,1-.87.447c-.6,0-1.566-.472-1.566-1.293a1.2,1.2,0,0,1,.3-.8l1.64-2.336-2.585-.746a1.152,1.152,0,0,1-.845-1.268,1.412,1.412,0,0,1,1.367-1.367.865.865,0,0,1,.373.075l2.61.845-.124-2.535a1.214,1.214,0,0,1,1.342-1.193,1.193,1.193,0,0,1,1.317,1.193l-.1,2.585,2.635-.895a1,1,0,0,1,.373-.075,1.477,1.477,0,0,1,1.293,1.541,1.04,1.04,0,0,1-.845,1.094l-2.535.6Z" transform="translate(-260.949 -300.841)" fill="#fff"/>
      </g>
      <g id="Group_969" data-name="Group 969" transform="translate(-65.834 100.471)">
        <path id="Path_1645-2" data-name="Path 1645" d="M270.394,309.391a1.239,1.239,0,0,1,.2.721,1.475,1.475,0,0,1-1.516,1.342,1.039,1.039,0,0,1-.944-.472l-1.616-2.486-1.64,2.51a.893.893,0,0,1-.87.447c-.6,0-1.566-.472-1.566-1.293a1.2,1.2,0,0,1,.3-.8l1.64-2.336-2.585-.746a1.152,1.152,0,0,1-.845-1.268,1.412,1.412,0,0,1,1.367-1.367.865.865,0,0,1,.373.075l2.61.845-.124-2.535a1.214,1.214,0,0,1,1.342-1.193,1.193,1.193,0,0,1,1.317,1.193l-.1,2.585,2.635-.895a1,1,0,0,1,.373-.075,1.477,1.477,0,0,1,1.293,1.541,1.04,1.04,0,0,1-.845,1.094l-2.535.6Z" transform="translate(-260.949 -300.841)" fill="#fff"/>
      </g>
      <g id="Group_957" data-name="Group 957" transform="translate(-78.395 100.471)">
        <path id="Path_1646" data-name="Path 1646" d="M379.784,309.391a1.239,1.239,0,0,1,.2.721,1.475,1.475,0,0,1-1.516,1.342,1.039,1.039,0,0,1-.944-.472l-1.616-2.486-1.64,2.51a.893.893,0,0,1-.87.447c-.6,0-1.566-.472-1.566-1.293a1.2,1.2,0,0,1,.3-.8l1.64-2.336-2.585-.746a1.152,1.152,0,0,1-.845-1.268,1.412,1.412,0,0,1,1.367-1.367.865.865,0,0,1,.373.075l2.61.845-.124-2.535a1.214,1.214,0,0,1,1.342-1.193,1.193,1.193,0,0,1,1.317,1.193l-.1,2.585,2.635-.895a1,1,0,0,1,.373-.075,1.477,1.477,0,0,1,1.293,1.541,1.04,1.04,0,0,1-.845,1.094l-2.535.6Z" transform="translate(-370.339 -300.841)" fill="#fff"/>
      </g>
      <g id="Group_968" data-name="Group 968" transform="translate(-53.395 100.471)">
        <path id="Path_1646-2" data-name="Path 1646" d="M379.784,309.391a1.239,1.239,0,0,1,.2.721,1.475,1.475,0,0,1-1.516,1.342,1.039,1.039,0,0,1-.944-.472l-1.616-2.486-1.64,2.51a.893.893,0,0,1-.87.447c-.6,0-1.566-.472-1.566-1.293a1.2,1.2,0,0,1,.3-.8l1.64-2.336-2.585-.746a1.152,1.152,0,0,1-.845-1.268,1.412,1.412,0,0,1,1.367-1.367.865.865,0,0,1,.373.075l2.61.845-.124-2.535a1.214,1.214,0,0,1,1.342-1.193,1.193,1.193,0,0,1,1.317,1.193l-.1,2.585,2.635-.895a1,1,0,0,1,.373-.075,1.477,1.477,0,0,1,1.293,1.541,1.04,1.04,0,0,1-.845,1.094l-2.535.6Z" transform="translate(-370.339 -300.841)" fill="#fff"/>
      </g>
    </g>
  </g>
</svg>
