<svg xmlns="http://www.w3.org/2000/svg" width="60" height="60" viewBox="0 0 60 60">
  <g id="ic_p" transform="translate(26.995 2.979)">
    <g id="Group_1023" data-name="Group 1023" transform="translate(-6)">
      <path id="Path_1606" data-name="Path 1606" d="M310.992,44.652H300.017v-12.8a1.829,1.829,0,0,1,1.829-1.829h7.316a1.829,1.829,0,0,1,1.829,1.829Z" transform="translate(-281.864 -26.34)" fill="#c1b0b5"/>
      <path id="Path_1607" data-name="Path 1607" d="M100.278,67.311V95.857a1.811,1.811,0,0,1-1.829,1.829H61.866a1.811,1.811,0,0,1-1.829-1.829V67.311L80.157,48.8l.183-.183Z" transform="translate(-71.15 -42.67)" fill="#f3eff0"/>
      <path id="Path_1608" data-name="Path 1608" d="M245.144,67.311V95.857a1.811,1.811,0,0,1-1.829,1.829H225.024V48.8l.183-.183Z" transform="translate(-216.017 -42.67)" fill="#eaeaea"/>
      <path id="Path_1609" data-name="Path 1609" d="M54.037,27.973a3.662,3.662,0,0,1-5.158.475L27.441,8.438,6,28.448a3.663,3.663,0,1,1-4.683-5.634L25.1.865a3.679,3.679,0,0,1,4.682,0L53.561,22.815A3.662,3.662,0,0,1,54.037,27.973Z" transform="translate(-18.434 -0.003)" fill="#f26372"/>
      <path id="Path_1610" data-name="Path 1610" d="M251.618,27.97a3.662,3.662,0,0,1-5.158.475L225.023,8.435V.021a3.676,3.676,0,0,1,2.341.841l23.779,21.949A3.662,3.662,0,0,1,251.618,27.97Z" transform="translate(-216.016)" fill="#f05565"/>
      <path id="Path_1616" data-name="Path 1616" d="M257.444,270a5.636,5.636,0,0,0-4.745,2.634A5.636,5.636,0,0,0,247.953,270a6.1,6.1,0,0,0-5.931,6.382c0,3.844,2.966,6.438,7.45,10.257.759.664,1.589,1.455,2.444,2.191a1.148,1.148,0,0,0,1.566,0c.854-.735,1.684-1.526,2.444-2.191,4.484-3.82,7.45-6.414,7.45-10.257A6.1,6.1,0,0,0,257.444,270Z" transform="translate(-243.693 -242.845)" fill="#f26372"/>
      <path id="Path_1617" data-name="Path 1617" d="M387.688,276.381c0,3.844-2.966,6.438-7.45,10.257-.759.664-1.589,1.455-2.444,2.191a1.132,1.132,0,0,1-.783.308V272.633A5.636,5.636,0,0,1,381.757,270,6.1,6.1,0,0,1,387.688,276.381Z" transform="translate(-368.006 -242.844)" fill="#f05565"/>
      <path id="Path_1627" data-name="Path 1627" d="M335.908,382.015a6.083,6.083,0,0,1,5.552,5.5,4.863,4.863,0,0,1-2.382,9.111H325.665a3.649,3.649,0,0,1-1.2-7.1,4.822,4.822,0,0,1,5.984-4.951A6.077,6.077,0,0,1,335.908,382.015Z" transform="translate(-304.952 -341.609)" fill="#82b321"/>
      <path id="Path_1628" data-name="Path 1628" d="M31.957,392.971A3.658,3.658,0,0,1,28.3,396.63H14.884a4.863,4.863,0,0,1-2.382-9.111,6.067,6.067,0,0,1,11.01-2.94,4.835,4.835,0,0,1,6.006,4.734c0,.074-.018.144-.022.217A3.649,3.649,0,0,1,31.957,392.971Z" transform="translate(-31.001 -341.609)" fill="#8cc928"/>
    </g>
    <g id="Rectangle_854" data-name="Rectangle 854" transform="translate(-26.995 -2.979)" fill="#fff" stroke="#707070" stroke-width="1" opacity="0">
      <rect width="60" height="60" stroke="none"/>
      <rect x="0.5" y="0.5" width="59" height="59" fill="none"/>
    </g>
  </g>
</svg>
