<svg id="ic_s" xmlns="http://www.w3.org/2000/svg" width="60" height="60" viewBox="0 0 60 60">
  <g id="Group_1022" data-name="Group 1022">
    <path id="Path_1586" data-name="Path 1586" d="M427.25,273.875v12.188a9.386,9.386,0,0,1-9.375,9.375A1.875,1.875,0,0,1,416,293.563V273.875A1.875,1.875,0,0,1,417.875,272h7.5A1.875,1.875,0,0,1,427.25,273.875Z" transform="translate(-367.25 -240.125)" fill="#29abe2"/>
    <path id="Path_1587" data-name="Path 1587" d="M432.891,273.875v12.188a9.386,9.386,0,0,1-9.375,9.375,1.875,1.875,0,0,1-1.126-.374,9.391,9.391,0,0,0,6.751-9V273.875A1.875,1.875,0,0,0,427.266,272h3.75A1.875,1.875,0,0,1,432.891,273.875Z" transform="translate(-372.891 -240.125)" fill="#1071bc"/>
    <path id="Path_1588" data-name="Path 1588" d="M11.25,273.875v19.688a1.874,1.874,0,0,1-1.875,1.875A9.386,9.386,0,0,1,0,286.063V273.875A1.874,1.874,0,0,1,1.875,272h7.5A1.874,1.874,0,0,1,11.25,273.875Z" transform="translate(0 -240.125)" fill="#29abe2"/>
    <path id="Path_1589" data-name="Path 1589" d="M25.375,273.875v19.688a1.874,1.874,0,0,1-1.875,1.875,9.329,9.329,0,0,1-5.625-1.879V273.875A1.874,1.874,0,0,0,16,272h7.5A1.874,1.874,0,0,1,25.375,273.875Z" transform="translate(-14.125 -240.125)" fill="#1071bc"/>
    <path id="Path_1590" data-name="Path 1590" d="M198.907,11.352a1.876,1.876,0,0,1-1.854-2.17,4.688,4.688,0,1,0-9.258,0,1.875,1.875,0,1,1-3.7.589,8.438,8.438,0,1,1,16.664,0A1.876,1.876,0,0,1,198.907,11.352Z" transform="translate(-162.424)" fill="#8c6239"/>
    <path id="Path_1591" data-name="Path 1591" d="M109,78.5v25.313a5.631,5.631,0,0,1-5.625,5.625H69.625A5.631,5.631,0,0,1,64,103.813V78.5a22.5,22.5,0,0,1,45,0Z" transform="translate(-56.5 -49.438)" fill="#febf40"/>
    <path id="Path_1592" data-name="Path 1592" d="M264.375,78.485V103.8a5.631,5.631,0,0,1-5.625,5.625H255a5.631,5.631,0,0,0,5.625-5.625V78.485A22.531,22.531,0,0,0,240,56.063,22.525,22.525,0,0,1,264.375,78.485Z" transform="translate(-211.875 -49.423)" fill="#fbb33a"/>
    <path id="Path_1594" data-name="Path 1594" d="M158,307.034v9.153a5.631,5.631,0,0,1-5.625,5.625h-18.75A5.631,5.631,0,0,1,128,316.188V305.314A16.956,16.956,0,0,1,133.625,304h17.783C155.956,306.553,158,303.932,158,307.034Z" transform="translate(-113 -268.375)" fill="#e97424"/>
    <path id="Path_1595" data-name="Path 1595" d="M313.375,306.644v9.544a5.631,5.631,0,0,1-5.625,5.625H304a5.631,5.631,0,0,0,5.625-5.625v-6.562A5.631,5.631,0,0,0,304,304l3.355.562C310.457,304.562,313.375,303.542,313.375,306.644Z" transform="translate(-268.375 -268.375)" fill="#e76e20"/>
    <path id="Path_1605" data-name="Path 1605" d="M194.216,140.207l4.7-4.7a2.633,2.633,0,0,1,3.722,0l4.7,4.7a2.633,2.633,0,0,1,0,3.722l-4.7,4.7a2.633,2.633,0,0,1-3.722,0l-4.7-4.7A2.633,2.633,0,0,1,194.216,140.207Z" transform="translate(-170.834 -119.768)" fill="#8c6239"/>
    <g id="Group_950" data-name="Group 950" transform="translate(26.785 20.194)">
      <rect id="Rectangle_812" data-name="Rectangle 812" width="2.105" height="4.211" rx="1.053" fill="#724820"/>
      <rect id="Rectangle_813" data-name="Rectangle 813" width="2.105" height="4.211" rx="1.053" transform="translate(4.21)" fill="#724820"/>
    </g>
    <path id="Rectangle_815" data-name="Rectangle 815" d="M6.429,0h9.492a1.071,1.071,0,0,1,1.071,1.071v0A6.429,6.429,0,0,1,10.564,7.5H0a0,0,0,0,1,0,0V6.429A6.429,6.429,0,0,1,6.429,0Z" transform="translate(28.008 35.625)" fill="#f8cd71"/>
    <path id="Rectangle_816" data-name="Rectangle 816" d="M1.071,0h23.99a1.071,1.071,0,0,1,1.071,1.071v0A6.429,6.429,0,0,1,19.7,7.5H6.429A6.429,6.429,0,0,1,0,1.071v0A1.071,1.071,0,0,1,1.071,0Z" transform="translate(15 35.625)" fill="#fbd87c"/>
  </g>
  <g id="Rectangle_853" data-name="Rectangle 853" fill="#fff" stroke="#707070" stroke-width="1" opacity="0">
    <rect width="60" height="60" stroke="none"/>
    <rect x="0.5" y="0.5" width="59" height="59" fill="none"/>
  </g>
</svg>
