<svg xmlns="http://www.w3.org/2000/svg" width="60" height="60" viewBox="0 0 60 60">
  <g id="ic_t" transform="translate(0 -9.302)">
    <g id="Group_1021" data-name="Group 1021">
      <path id="Path_1543" data-name="Path 1543" d="M22.664,34H77.352V69.241H22.664Z" transform="translate(-20.008 -20.917)" fill="#6f6571"/>
      <path id="Path_1544" data-name="Path 1544" d="M458.431,34h3.622V69.24h-3.622Z" transform="translate(-404.709 -20.917)" fill="#5d5360"/>
      <path id="Path_1545" data-name="Path 1545" d="M181.253,409.513H158.476l1.731-3.622h19.316Z" transform="translate(-139.905 -349.231)" fill="#bc845e"/>
      <path id="Path_1546" data-name="Path 1546" d="M318.121,367.4h3.117a.6.6,0,0,0,.554-.844l-6.876-15.816-2.435-1.167-2.394,1.167,6.928,15.934A1.207,1.207,0,0,0,318.121,367.4Z" transform="translate(-273.748 -299.514)" fill="#d19a6e"/>
      <path id="Path_1547" data-name="Path 1547" d="M105.317,367.25H102.2a.6.6,0,0,1-.554-.844l6.876-15.816,2.435-1.187,2.394,1.187-6.928,15.934A1.207,1.207,0,0,1,105.317,367.25Z" transform="translate(-89.69 -299.363)" fill="#d19a6e"/>
      <path id="Path_1548" data-name="Path 1548" d="M189.288,297.722h-9.753c-.726,0-1.314.811-1.314,1.811v2.529H190.6v-2.529C190.6,298.533,190.014,297.722,189.288,297.722Z" transform="translate(-140.443 -253.738)" fill="#4e901e"/>
      <path id="Path_1549" data-name="Path 1549" d="M292.854,299.533v2.528h-3.622v-2.528a1.812,1.812,0,0,0-1.811-1.811h3.622A1.812,1.812,0,0,1,292.854,299.533Z" transform="translate(-241.522 -253.738)" fill="#47821c"/>
      <path id="Path_1550" data-name="Path 1550" d="M57.621,13.924H1.207A1.207,1.207,0,0,1,0,12.716V11.509A1.207,1.207,0,0,1,1.207,10.3H57.621a1.207,1.207,0,0,1,1.207,1.207v1.207A1.207,1.207,0,0,1,57.621,13.924Z" fill="#ffc269"/>
      <path id="Path_1551" data-name="Path 1551" d="M475.622,11.509v1.207a1.208,1.208,0,0,1-1.207,1.207h-3.622A1.208,1.208,0,0,0,472,12.717V11.509a1.208,1.208,0,0,0-1.207-1.207h3.622A1.208,1.208,0,0,1,475.622,11.509Z" transform="translate(-415.622)" fill="#ffa95f"/>
      <path id="Path_1552" data-name="Path 1552" d="M57.621,332.25H1.207A1.207,1.207,0,0,1,0,331.042v-1.207a1.207,1.207,0,0,1,1.207-1.207H57.621a1.207,1.207,0,0,1,1.207,1.207v1.207A1.207,1.207,0,0,1,57.621,332.25Z" transform="translate(0 -281.022)" fill="#ffc269"/>
      <path id="Path_1553" data-name="Path 1553" d="M475.622,329.835v1.207a1.208,1.208,0,0,1-1.207,1.207h-3.622A1.208,1.208,0,0,0,472,331.043v-1.207a1.208,1.208,0,0,0-1.207-1.207h3.622A1.208,1.208,0,0,1,475.622,329.835Z" transform="translate(-415.622 -281.022)" fill="#ffa95f"/>
      <g id="Group_947" data-name="Group 947" transform="matrix(0.998, -0.07, 0.07, 0.998, 8.069, 26.064)">
        <path id="Path_1580" data-name="Path 1580" d="M5.525,9.131H1.264A1.264,1.264,0,0,1,.357,6.987l1.82-1.874L2.191,5.1c.848-.855,1.506-2.082,1.3-2.429-.065-.11-.106-.121-.139-.129a1.987,1.987,0,0,0-1.114.3A1.264,1.264,0,1,1,.922.687a4.325,4.325,0,0,1,3.042-.6,2.717,2.717,0,0,1,1.709,1.3C6.842,3.387,5,5.764,4.244,6.6H5.525a1.264,1.264,0,0,1,0,2.527Z" transform="translate(16.343 0)" fill="#faf2f3"/>
        <path id="Path_1581" data-name="Path 1581" d="M5.476,2.106H4.633V1.264a1.264,1.264,0,1,0-2.527,0v.842H1.264a1.264,1.264,0,1,0,0,2.527h.842v.842a1.264,1.264,0,0,0,2.527,0V4.633h.842a1.264,1.264,0,0,0,0-2.527Z" transform="translate(8.196 2.392)" fill="#faf2f3"/>
        <path id="Path_1582" data-name="Path 1582" d="M4.5,2.527H1.264A1.264,1.264,0,1,1,1.264,0H4.5a1.264,1.264,0,1,1,0,2.527Z" transform="translate(25.603 1.828)" fill="#faf2f3"/>
        <path id="Path_1583" data-name="Path 1583" d="M4.5,2.527H1.264A1.264,1.264,0,1,1,1.264,0H4.5a1.264,1.264,0,0,1,0,2.527Z" transform="translate(25.603 5.872)" fill="#faf2f3"/>
        <path id="Path_1584" data-name="Path 1584" d="M6.065,3.707H5.847V2.249a1.264,1.264,0,0,0-2.527,0V3.707H2.527V1.264A1.264,1.264,0,0,0,0,1.264V4.97A1.263,1.263,0,0,0,1.264,6.234H3.32v1.6a1.264,1.264,0,1,0,2.527,0v-1.6h.218a1.264,1.264,0,1,0,0-2.527Z" transform="translate(33.403 0.033)" fill="#faf2f3"/>
        <path id="Path_1585" data-name="Path 1585" d="M5.525,9.131H1.264A1.264,1.264,0,0,1,.357,6.987l1.82-1.874L2.191,5.1c.848-.855,1.506-2.082,1.3-2.429-.065-.11-.106-.121-.139-.129a1.987,1.987,0,0,0-1.114.3A1.264,1.264,0,1,1,.922.687a4.325,4.325,0,0,1,3.042-.6,2.717,2.717,0,0,1,1.709,1.3C6.842,3.387,5,5.764,4.244,6.6H5.525a1.264,1.264,0,0,1,0,2.527Z" transform="translate(0 0)" fill="#faf2f3"/>
      </g>
      <path id="Rectangle_803" data-name="Rectangle 803" d="M.891,0H6.618a.891.891,0,0,1,.891.891v0a0,0,0,0,1,0,0H0a0,0,0,0,1,0,0v0A.891.891,0,0,1,.891,0Z" transform="translate(11.963 46.699)" fill="#faf2f3"/>
    </g>
    <g id="Rectangle_852" data-name="Rectangle 852" transform="translate(0 9.302)" fill="#fff" stroke="#707070" stroke-width="1" opacity="0">
      <rect width="60" height="60" stroke="none"/>
      <rect x="0.5" y="0.5" width="59" height="59" fill="none"/>
    </g>
  </g>
</svg>
