<svg xmlns="http://www.w3.org/2000/svg" width="86" height="73.536" viewBox="0 0 86 73.536">
  <g id="ic_title" transform="translate(0 -37.726)">
    <path id="Path_1673" data-name="Path 1673" d="M17.637,342C7.912,342,0,348.214,0,355.852v6.6a2.3,2.3,0,0,0,2.52,1.979h26.2l5.451-13.39c-2.5-5.272-8.967-9.037-16.537-9.037Z" transform="translate(0 -253.166)" fill="#dc4153"/>
    <path id="Path_1675" data-name="Path 1675" d="M50.918,263.836a10.918,10.918,0,1,1,10.918-10.918A10.93,10.93,0,0,1,50.918,263.836Z" transform="translate(-33.281 -169.963)" fill="#ffd6ac"/>
    <path id="Path_1677" data-name="Path 1677" d="M325.148,342c-7.557,0-14.019,3.753-16.524,9.01l5.438,13.417h26.2a2.3,2.3,0,0,0,2.52-1.979v-6.6C342.785,348.214,334.873,342,325.148,342Z" transform="translate(-256.785 -253.166)" fill="#eead38"/>
    <path id="Path_1679" data-name="Path 1679" d="M352.918,263.836a10.918,10.918,0,1,1,10.918-10.918A10.93,10.93,0,0,1,352.918,263.836Z" transform="translate(-284.555 -169.963)" fill="#ffd6ac"/>
    <path id="Path_1681" data-name="Path 1681" d="M199.555,409.724H171v-5.009c0-6.912,6.276-12.647,14.136-12.714,7.937-.068,14.418,5.59,14.418,12.554Z" transform="translate(-142.277 -298.463)" fill="#2a85fc"/>
    <path id="Path_1683" data-name="Path 1683" d="M210.238,330.477a9.238,9.238,0,1,1,9.238-9.238A9.249,9.249,0,0,1,210.238,330.477Z" transform="translate(-167.238 -231.9)" fill="#ffd6ac"/>
    <g id="question" transform="translate(24.691 37.726)">
      <path id="Path_1684" data-name="Path 1684" d="M34.479,35.434c-5.878,4.8-24.233,4.8-29.991,0-5.878-4.8-5.278-25.312,0-30.711s24.713-5.4,29.991,0S40.357,30.636,34.479,35.434Z" transform="translate(-0.301 -0.618)" fill="#4eb687"/>
      <path id="Path_1685" data-name="Path 1685" d="M19.794,26.419A28.088,28.088,0,0,1,3.119,32.9C-.96,25.939-.12,9.025,4.679,4.106,9-.333,22.553-1.172,30.351,1.587,32.27,9.5,28.311,19.581,19.794,26.419Z" transform="translate(-0.492 0)" fill="#6fc39c"/>
      <path id="Path_1686" data-name="Path 1686" d="M149.614,101.265h-5.158V98.746a4.1,4.1,0,0,1,.36-2.039,8.253,8.253,0,0,1,1.56-1.919l2.279-2.4a2.212,2.212,0,0,0,.48-1.56,1.842,1.842,0,0,0-.6-1.56,1.615,1.615,0,0,0-1.44-.6,1.71,1.71,0,0,0-1.44.72,4.534,4.534,0,0,0-.72,2.039h-5.4a7.634,7.634,0,0,1,2.519-5.278,8.475,8.475,0,0,1,10.437-.24,6.155,6.155,0,0,1,2.039,4.8,4.425,4.425,0,0,1-.36,2.039l-.48.96c-.12.24-.36.48-.6.84l-.72.72-1.56,1.56a3.766,3.766,0,0,0-.96,1.2,3.7,3.7,0,0,0-.24,1.32v1.92Zm-5.518,4.319a3,3,0,1,1,3,3A2.97,2.97,0,0,1,144.1,105.584Z" transform="translate(-127.793 -77.125)" fill="#fff"/>
    </g>
  </g>
</svg>
