<svg xmlns="http://www.w3.org/2000/svg" width="120" height="172.173" viewBox="0 0 120 172.173">
  <g id="logo_h" transform="translate(-38.313 0.003)">
    <g id="Group_936" data-name="Group 936" transform="translate(2)">
      <path id="Path_1496" data-name="Path 1496" d="M7.9,253.5v20.651H4.742v-16.86A11.27,11.27,0,0,1,0,259.894V256.77a12.248,12.248,0,0,0,2.92-1.215,11.988,11.988,0,0,0,2.6-2.056Z" transform="translate(36.313 -107.701)" fill="#595757"/>
      <path id="Path_1497" data-name="Path 1497" d="M50.228,254.169a7.676,7.676,0,0,1,2.76,4.976h-3.08a4.913,4.913,0,0,0-2-3.094,6.471,6.471,0,0,0-3.7-.985,5.835,5.835,0,0,0-5.033,2.286,9.124,9.124,0,0,0-1.589,5.7,9.281,9.281,0,0,0,1.558,5.757,6.023,6.023,0,0,0,5.119,2.169,6.06,6.06,0,0,0,3.761-1.128,6.394,6.394,0,0,0,2.169-3.644h3.067a9.141,9.141,0,0,1-3.24,5.64,8.887,8.887,0,0,1-5.7,1.909c-3.384,0-5.93-1.1-7.636-3.24a13.453,13.453,0,0,1,.087-14.954c1.735-2.2,4.225-3.267,7.519-3.267A9.124,9.124,0,0,1,50.228,254.169Z" transform="translate(13.359 -106.895)" fill="#595757"/>
      <path id="Path_1498" data-name="Path 1498" d="M109.09,271.035a5.867,5.867,0,0,1,1.358,4.165v9.544h-2.823v-2.109a6.257,6.257,0,0,1-2.169,1.792,8.07,8.07,0,0,1-3.471.724,5.262,5.262,0,0,1-3.644-1.188,3.728,3.728,0,0,1-1.418-3.037,4.4,4.4,0,0,1,2-3.875,9.23,9.23,0,0,1,5.149-1.358l3.354-.087V275q0-3.124-3.384-3.124a4.488,4.488,0,0,0-2.313.521,2.65,2.65,0,0,0-1.3,1.849l-3.037-.26a5.1,5.1,0,0,1,2.4-3.584,8.334,8.334,0,0,1,4.455-1A6.355,6.355,0,0,1,109.09,271.035Zm-4.832,6.885c-2.8.057-4.192,1.041-4.192,2.893a1.685,1.685,0,0,0,.721,1.415,2.92,2.92,0,0,0,1.882.581,4.976,4.976,0,0,0,3.337-1.188,3.7,3.7,0,0,0,1.418-2.92v-.868Z" transform="translate(-28.262 -118.294)" fill="#595757"/>
      <path id="Path_1499" data-name="Path 1499" d="M158.967,271.869a6.12,6.12,0,0,1,2.142-1.966,5.239,5.239,0,0,1,2.543-.551,5.079,5.079,0,0,1,3.818,1.535,5.481,5.481,0,0,1,1.505,4v9.8h-3.067v-9.271a3.843,3.843,0,0,0-.781-2.67,3.363,3.363,0,0,0-2.543-.838,2.743,2.743,0,0,0-2.143.954,3.8,3.8,0,0,0-.868,2.63v9.2h-3.064v-9.244c0-2.373-1.045-3.527-3.067-3.527a2.853,2.853,0,0,0-2.373,1.128,3.884,3.884,0,0,0-.924,2.67v8.994H147.08V269.77h3.067v1.649a5.37,5.37,0,0,1,4.108-2.056A4.937,4.937,0,0,1,158.967,271.869Z" transform="translate(-61.684 -118.261)" fill="#595757"/>
      <path id="Path_1500" data-name="Path 1500" d="M234.9,271.736a9.779,9.779,0,0,1,.03,11.08,6.075,6.075,0,0,1-5.063,2.336,5.388,5.388,0,0,1-4.569-2.6v7.923H222.23V269.78h2.863v1.829a5.311,5.311,0,0,1,4.629-2.2A6.239,6.239,0,0,1,234.9,271.736Zm-8.74,1.735a6.446,6.446,0,0,0-.954,3.7v.26a5.9,5.9,0,0,0,1.185,3.875,3.337,3.337,0,0,0,2.777,1.358,3.876,3.876,0,0,0,3.337-1.475,6.7,6.7,0,0,0,.981-3.844,7.216,7.216,0,0,0-.894-3.848,3.683,3.683,0,0,0-3.337-1.619,3.511,3.511,0,0,0-3.094,1.589Z" transform="translate(-111.755 -118.301)" fill="#595757"/>
      <path id="Path_1501" data-name="Path 1501" d="M276.257,270.58v9.111a3.934,3.934,0,0,0,.811,2.777,3.373,3.373,0,0,0,2.573.894,3.257,3.257,0,0,0,2.226-.981,5.306,5.306,0,0,0,1.448-2.67V270.58h3.064v14.951h-3.064v-2.022a5.785,5.785,0,0,1-4.715,2.429c-3.614,0-5.41-2.026-5.41-6.047V270.58Z" transform="translate(-145.708 -119.081)" fill="#595757"/>
      <path id="Path_1502" data-name="Path 1502" d="M332.538,274.128h-2.98a2.8,2.8,0,0,0-1.068-1.669,4.507,4.507,0,0,0-2.373-.521,4.014,4.014,0,0,0-2.082.407,1.415,1.415,0,0,0-.811,1.335c0,.521.407.954,1.215,1.335a22.122,22.122,0,0,0,3,.9,12.7,12.7,0,0,1,3.788,1.415,3.537,3.537,0,0,1,1.792,3.124c0,3.154-2.226,4.746-6.651,4.746-4.108,0-6.3-1.765-6.651-5.236h3a3.367,3.367,0,0,0,1.071,2.139,4.059,4.059,0,0,0,2.486.581c2.373,0,3.588-.694,3.588-2.026a1.921,1.921,0,0,0-1.335-1.705,16.369,16.369,0,0,0-3-.868,12.37,12.37,0,0,1-3.7-1.3,3.394,3.394,0,0,1-1.735-3,3.6,3.6,0,0,1,1.669-3.18,7.585,7.585,0,0,1,4.4-1.158C330.052,269.413,332.191,270.961,332.538,274.128Z" transform="translate(-176.71 -118.321)" fill="#595757"/>
    </g>
    <g id="Group_935" data-name="Group 935">
      <path id="Path_1503" data-name="Path 1503" d="M184.839,112.854H184c0-3.009-.544-4.022-3.026-5.4l.419-.74C184.1,108.234,184.839,109.556,184.839,112.854Z" transform="translate(-82.487 -48.64)" fill="#a7a530"/>
      <path id="Path_1504" data-name="Path 1504" d="M187.374,133.273h-.844V111.092c0-2.721,3.309-4.93,4.734-5.752l.419.735c-2.721,1.556-4.31,3.434-4.31,5.017Z" transform="translate(-85.022 -48.016)" fill="#9e9925"/>
      <path id="Path_1505" data-name="Path 1505" d="M169.093,99.8a5.8,5.8,0,0,1-2.661-.762c-1.812-.947-18.5-10.688-19.232-11.1l.43-.735c.174.1,17.414,10.149,19.188,11.08a3.872,3.872,0,0,0,4.4,0l19.21-11.091.419.735-19.2,11.091A5.007,5.007,0,0,1,169.093,99.8Z" transform="translate(-67.095 -39.743)" fill="#b2b237"/>
      <path id="Path_1506" data-name="Path 1506" d="M232.046,159.114a8.076,8.076,0,0,0-3.064-5.4,7.941,7.941,0,0,0-.958-.642,7.69,7.69,0,0,0-.974-.479,8.192,8.192,0,0,0-7.194.473l-23.542,13.6L190.552,170a7.189,7.189,0,0,1-3.6.963h-.424v18.5h.844v-.027a9.643,9.643,0,0,0,4.354-1.263l36.3-20.951a8.119,8.119,0,0,0,4.022-8.114Z" transform="translate(-85.022 -69.275)" fill="#29a8cc"/>
      <circle id="Ellipse_20" data-name="Ellipse 20" cx="2.226" cy="2.226" r="2.226" transform="translate(128.338 44.383) rotate(-11.82)" fill="#9e9925"/>
      <path id="Path_1507" data-name="Path 1507" d="M261.1,87.52a2.231,2.231,0,0,0-3.037-.816l-2.721,1.584a2.226,2.226,0,1,0,2.22,3.853l2.721-1.584a2.22,2.22,0,0,0,.816-3.037Z" transform="translate(-115.838 -39.387)" fill="#9e9925"/>
      <path id="Path_1508" data-name="Path 1508" d="M243.03,113.456l-4.49,2.59a2.226,2.226,0,1,0,2.226,3.853l4.49-2.59a2.226,2.226,0,0,0-2.226-3.853Z" transform="translate(-108.195 -51.594)" fill="#9e9925"/>
      <path id="Path_1509" data-name="Path 1509" d="M188.528,28.509a1.623,1.623,0,0,0-.038-.43c-.038-.141-.038-.152-.054-.229a8.615,8.615,0,0,0-.376-1.366,8.473,8.473,0,0,0-.963-1.872,7.777,7.777,0,0,0-1.774-1.9,9.584,9.584,0,0,0-.947-.637L148.362,1.283a9.61,9.61,0,0,0-9.605,0L95.036,26.528a9.594,9.594,0,0,0-3.265,3.162h-.027l-.207.365h0l-.207.365,16.016,9.251.207-.37h0a7.205,7.205,0,0,1,2.645-2.65l1.2-.691h0l19.128-11.047,9.458-5.442a7.183,7.183,0,0,1,7.2,0l29.3,16.919a8.228,8.228,0,0,0,1.529.664c.174.054.337.125.512.169s.468.093.7.136c.125,0,.245.054.37.065.234.027.468.033.7.038h.381a8.163,8.163,0,0,0,4.169-1.214,6.473,6.473,0,0,0,.577-.414c.114-.082.239-.158.348-.245s.163-.163.25-.239c.185-.169.376-.332.544-.512.082-.093.142-.185.218-.278.152-.185.31-.365.446-.544.027-.038.044-.082.071-.125a8.1,8.1,0,0,0,1.312-4.773A5.183,5.183,0,0,1,188.528,28.509Z" transform="translate(-41.629)" fill="#e33854"/>
      <circle id="Ellipse_21" data-name="Ellipse 21" cx="2.226" cy="2.226" r="2.226" transform="translate(128.338 44.383) rotate(-11.82)" fill="#9e9925"/>
      <path id="Path_1510" data-name="Path 1510" d="M261.1,87.52a2.231,2.231,0,0,0-3.037-.816l-2.721,1.584a2.226,2.226,0,1,0,2.22,3.853l2.721-1.584a2.22,2.22,0,0,0,.816-3.037Z" transform="translate(-115.838 -39.387)" fill="#9e9925"/>
      <path id="Path_1511" data-name="Path 1511" d="M243.03,113.456l-4.49,2.59a2.226,2.226,0,1,0,2.226,3.853l4.49-2.59a2.226,2.226,0,0,0-2.226-3.853Z" transform="translate(-108.195 -51.594)" fill="#9e9925"/>
      <path id="Path_1512" data-name="Path 1512" d="M147.058,87.89a4.734,4.734,0,0,0-.648,2.4v20.135a4.9,4.9,0,0,0,2.405,4.158l17.447,10.073a4.8,4.8,0,0,0,2.405.642v-22.16a4.811,4.811,0,0,0-2.405-4.163Z" transform="translate(-66.735 -40.062)" fill="#a7a530"/>
      <path id="Path_1513" data-name="Path 1513" d="M221.97,94.87a.979.979,0,0,0,.1-.109,1.718,1.718,0,0,0,.207-.239c.033-.044.06-.1.093-.147a2.063,2.063,0,0,0,.131-.25,1.639,1.639,0,0,0,.065-.174,1.969,1.969,0,0,0,.071-.256,1.164,1.164,0,0,0,.033-.19,2.124,2.124,0,0,0,0-.267c0-.065,0-.125,0-.19a2.335,2.335,0,0,0-.038-.272.72.72,0,0,0-.044-.18,1.814,1.814,0,0,0-.114-.283,1.371,1.371,0,0,0-.065-.158,2.655,2.655,0,0,0-.25-.359,1.829,1.829,0,0,0-.348-.332.543.543,0,0,0-.071-.049,2.435,2.435,0,0,0-.256-.152,2.176,2.176,0,0,0-.327-.136h0a2.443,2.443,0,0,0-1.894.223l-4.354,2.525-7.352,4.245a2.226,2.226,0,0,1-1.807.174h0A1.894,1.894,0,0,1,205.17,98a.327.327,0,0,1-.071-.049,1.758,1.758,0,0,1-.316-.288.048.048,0,0,0-.033-.044,2.688,2.688,0,0,1-.234-.321v-.038c-.027-.049-.044-.1-.071-.158a1.956,1.956,0,0,1-.109-.278.284.284,0,0,0-.044-.185c-.044-.06-.033-.18-.044-.272a1.088,1.088,0,0,1,0-.19,2.13,2.13,0,0,1,0-.267,1.164,1.164,0,0,1,.033-.19,2.239,2.239,0,0,1,.071-.256,1.631,1.631,0,0,1,.065-.174,1.744,1.744,0,0,1,.131-.245l.092-.152a2.129,2.129,0,0,1,.2-.239c.038-.033.065-.076.1-.109a2.23,2.23,0,0,1,.386-.288l2.231-1.284,2.231-1.29,2.53-1.458a2.4,2.4,0,0,0,1.137-1.524h0a1.859,1.859,0,0,0,.049-.343,2.938,2.938,0,0,0,0-.31V87.98a2.371,2.371,0,0,0-.12-.479,2.28,2.28,0,0,0-.18-.386l-.1-.141a1.986,1.986,0,0,0-.19-.234,1.539,1.539,0,0,0-.136-.131c-.071-.06-.141-.12-.212-.169l-.163-.1a2.389,2.389,0,0,0-.239-.114l-.18-.071a2.291,2.291,0,0,0-.261-.065h-.185a2.37,2.37,0,0,0-.278,0h-.18a2.983,2.983,0,0,0-.3.054l-.147.033a2.073,2.073,0,0,0-.435.19h0l-7.352,4.245h0L189.71,98.189a4.805,4.805,0,0,0-2.4,4.163v22.176a4.8,4.8,0,0,0,2.4-.642l19.852-11.461h0l2.96-1.709a2.389,2.389,0,0,0,1.137-1.524h0a2.282,2.282,0,0,0,.044-.337,1.971,1.971,0,0,0,0-.31.361.361,0,0,0,0-.076,1.779,1.779,0,0,0-.12-.473,2.178,2.178,0,0,0-.18-.392c-.033-.049-.071-.092-.1-.136a2.137,2.137,0,0,0-.185-.239l-.141-.125a1.584,1.584,0,0,0-.376-.272,1.965,1.965,0,0,0-.239-.12,1.191,1.191,0,0,0-.18-.065,2.034,2.034,0,0,0-.261-.065,1.013,1.013,0,0,0-.185-.033,2.273,2.273,0,0,0-.278,0h-.174a2.724,2.724,0,0,0-.3.054l-.152.038a1.926,1.926,0,0,0-.435.19l-.822.473h0l-4.963,2.862-.838.484a2.226,2.226,0,0,1-1.807.174h0a2.177,2.177,0,0,1-.327-.131,2.489,2.489,0,0,1-.256-.158l-.071-.044a1.79,1.79,0,0,1-.316-.294.131.131,0,0,1-.033-.044,1.909,1.909,0,0,1-.229-.321s0,0,0-.038a1.41,1.41,0,0,1-.076-.158,2.931,2.931,0,0,1-.109-.278.76.76,0,0,0-.044-.185,2.331,2.331,0,0,1-.038-.272v-.19a2.124,2.124,0,0,1,0-.267,1.164,1.164,0,0,1,.033-.19,2.242,2.242,0,0,1,.071-.256l.065-.174a2.108,2.108,0,0,1,.131-.245l.093-.152a2.075,2.075,0,0,1,.2-.234c.038-.038.071-.082.109-.114a1.981,1.981,0,0,1,.381-.283h0l13.093-7.564h0l6.966-4.022A2,2,0,0,0,221.97,94.87Z" transform="translate(-85.377 -39.238)" fill="#9e9925"/>
      <path id="Path_1514" data-name="Path 1514" d="M171.61,88.522l5.9-3.407,7.232-4.174h0l6.062-3.5a4.762,4.762,0,0,0-1.752-1.758L171.61,65.6a4.8,4.8,0,0,0-4.805,0L149.358,75.679a4.74,4.74,0,0,0-1.758,1.758l19.2,11.085A4.8,4.8,0,0,0,171.61,88.522Z" transform="translate(-67.277 -29.609)" fill="#b2b237"/>
      <path id="Path_1515" data-name="Path 1515" d="M182.89,108.26a4.811,4.811,0,0,1,2.405,4.163,4.805,4.805,0,0,1,2.4-4.163,4.8,4.8,0,0,1-4.805,0Z" transform="translate(-83.362 -49.347)" fill="#a19b32"/>
      <path id="Path_1516" data-name="Path 1516" d="M139.043,125.871l-10.949-6.324-17.637-10.182-1.175-.691a7.221,7.221,0,0,1-3.63-6.247V68.039a7.2,7.2,0,0,1,.974-3.608L90.6,55.18a9.61,9.61,0,0,0-1.284,4.8v50.5a9.6,9.6,0,0,0,4.8,8.316l43.719,25.239a9.589,9.589,0,0,0,4.805,1.29v-18.5A7.211,7.211,0,0,1,139.043,125.871Z" transform="translate(-40.713 -25.153)" fill="#394868"/>
    </g>
  </g>
</svg>
